<?xml version="1.0" standalone="no"?>
<!DOCTYPE svg PUBLIC "-//W3C//DTD SVG 20010904//EN"
 "http://www.w3.org/TR/2001/REC-SVG-20010904/DTD/svg10.dtd">
<svg version="1.0" xmlns="http://www.w3.org/2000/svg"
 width="132.000000pt" height="132.000000pt" viewBox="0 0 132.000000 132.000000"
 preserveAspectRatio="xMidYMid meet">
<metadata>
Created by potrace 1.16, written by Peter Selinger 2001-2019
</metadata>
<g transform="translate(0.000000,132.000000) scale(0.100000,-0.100000)"
fill="#000000" stroke="none">
<path d="M530 1299 c0 -3 5 -21 11 -38 10 -28 9 -37 -11 -63 -25 -34 -20 -50
8 -25 10 10 21 17 24 17 8 0 37 -108 58 -218 20 -103 18 -112 -27 -112 -13 0
-26 -1 -29 -2 -6 -3 -74 183 -131 355 -14 42 -30 77 -35 77 -6 0 -7 -8 -3 -17
3 -10 13 -49 21 -88 8 -38 31 -139 50 -223 20 -84 35 -154 33 -156 -2 -2 -29
-13 -59 -25 -33 -13 -42 -19 -24 -16 25 5 40 -1 75 -27 61 -47 91 -104 92
-177 2 -59 2 -59 -55 -115 -44 -43 -66 -57 -98 -62 -57 -9 -119 17 -169 72
-62 66 -77 117 -40 129 13 4 18 12 15 22 -8 21 74 116 114 133 17 7 28 15 25
18 -3 3 2 13 10 22 14 16 13 19 -11 35 -25 16 -27 16 -65 -15 -34 -27 -40 -29
-46 -14 -3 9 0 26 7 38 12 19 12 20 -4 7 -9 -8 -19 -11 -23 -7 -4 3 -28 70
-55 149 -34 100 -47 129 -44 97 3 -25 8 -81 11 -125 3 -44 14 -118 24 -164
l18 -84 -30 -49 -31 -49 -13 25 c-22 42 -24 29 -3 -20 23 -52 24 -58 11 -49
-13 7 -57 88 -86 155 l-24 55 -1 -50 c0 -63 30 -195 45 -195 6 0 21 -10 33
-23 18 -19 22 -35 22 -94 0 -38 3 -99 8 -134 7 -61 7 -58 12 57 l5 122 40 -37
40 -36 -3 -122 -3 -123 -29 15 c-16 8 -36 25 -44 37 -9 12 -19 19 -22 15 -4
-4 -13 -2 -21 5 -28 22 -22 1 7 -27 17 -16 30 -23 30 -16 0 11 3 11 15 1 8 -7
12 -17 8 -23 -3 -6 -1 -7 5 -3 7 4 12 0 12 -10 0 -10 3 -14 7 -11 9 9 34 -13
27 -24 -3 -5 2 -9 10 -9 10 0 13 6 10 15 -7 18 31 22 41 4 4 -6 14 -8 22 -5 9
4 11 2 7 -6 -5 -8 -2 -9 9 -5 10 4 16 2 14 -6 -1 -8 11 -12 37 -11 24 1 33 -2
25 -7 -10 -6 -7 -9 10 -9 20 0 21 -2 11 -15 -11 -13 6 -15 146 -15 162 0 208
5 198 21 -3 5 6 9 20 9 13 0 27 6 29 13 3 6 6 2 6 -10 1 -16 7 -23 21 -23 11
0 20 7 20 15 0 9 -6 12 -15 9 -11 -4 -13 -2 -9 9 9 25 43 28 55 5 6 -11 13
-17 16 -14 4 3 -2 15 -12 26 -17 19 -17 20 6 29 113 43 193 94 285 183 l72 69
6 -88 c3 -48 4 -99 2 -113 -2 -14 -4 -30 -5 -35 0 -6 -18 -29 -39 -52 -31 -33
-34 -41 -19 -40 21 2 67 51 67 72 0 8 5 17 12 21 7 5 8 2 3 -7 -5 -9 -1 -8 10
3 15 14 17 33 16 139 -2 140 -10 174 -12 48 l-2 -84 -12 125 c-29 288 -55 435
-110 615 -32 104 -116 309 -136 330 -14 14 -12 6 21 -74 17 -40 30 -75 30 -77
0 -2 -37 -5 -82 -7 l-83 -3 86 -2 87 -2 22 -51 c33 -78 36 -145 8 -193 -25
-43 -58 -68 -65 -50 -2 6 -14 9 -27 7 -31 -6 -52 27 -36 57 6 11 14 20 18 20
4 0 13 14 19 30 13 34 37 39 53 11 7 -14 6 -23 -3 -33 -17 -18 -17 -70 0 -56
37 30 34 136 -5 184 -35 42 -65 53 -150 55 -45 2 -82 4 -82 6 0 3 132 65 165
77 l20 7 -20 11 c-11 6 -25 16 -31 24 -8 10 -21 8 -68 -14 l-58 -26 -50 53
c-28 28 -52 50 -54 48 -2 -2 12 -26 31 -55 38 -56 41 -67 22 -75 -6 -2 -39 26
-72 64 -33 37 -68 68 -77 69 -23 0 -23 1 12 -78 29 -62 30 -67 14 -79 -10 -7
-21 -13 -25 -13 -8 0 -69 92 -69 104 0 4 -5 12 -10 19 -6 7 -17 21 -25 32 -8
11 -15 17 -15 14z m337 -199 c10 0 4 -10 -16 -29 -35 -33 -40 -52 -12 -44 21
5 33 -17 20 -38 -7 -11 -12 -12 -29 -1 -19 11 -20 10 -20 -21 0 -18 10 -53 23
-77 28 -54 75 -82 135 -78 23 2 42 2 42 1 0 -22 -18 -33 -54 -33 -83 1 -165
62 -207 154 -25 56 -24 63 12 70 31 6 31 7 15 30 -15 24 -14 26 16 51 17 14
37 24 45 21 8 -4 21 -6 30 -6z m319 -297 c-3 -4 -2 -11 3 -17 8 -10 41 -209
56 -333 5 -50 4 -54 -38 -105 -105 -128 -276 -227 -437 -253 -114 -18 -171
-19 -242 -3 -65 14 -106 50 -157 139 l-38 66 38 10 c30 8 41 7 50 -3 14 -17
33 -19 23 -2 -5 8 -2 9 10 5 14 -6 16 -3 10 16 -6 22 -6 22 20 -2 27 -26 33
-22 16 10 -13 24 -3 25 23 2 19 -17 19 -17 13 5 -9 26 1 28 26 5 18 -16 19
-16 9 11 -15 39 -14 40 16 20 l28 -17 -19 28 c-17 26 -17 28 -1 21 13 -5 16
-2 11 10 -4 10 7 32 29 58 19 24 35 47 35 51 0 7 34 40 87 85 10 8 20 14 23
13 3 -1 12 5 20 12 15 13 65 37 85 40 6 1 19 5 30 9 95 35 92 34 110 17 16
-15 17 -14 10 7 -7 24 4 29 24 10 11 -11 12 -9 6 10 -8 27 1 28 28 5 19 -17
20 -17 8 4 -17 32 -13 38 10 18 20 -19 20 -19 10 8 -12 31 6 50 21 23 13 -24
31 -21 18 3 -15 28 -12 35 6 20 15 -12 16 -11 10 11 -6 22 -5 22 4 7 7 -10 9
-21 6 -24z m-914 -470 c13 -16 38 -58 53 -96 31 -74 67 -120 40 -51 -15 38
-15 38 2 14 10 -13 33 -44 51 -67 l32 -43 -27 6 c-74 16 -131 35 -141 46 -30
37 -65 218 -42 218 4 0 18 -12 32 -27z"/>
<path d="M351 692 c-19 -9 -41 -27 -49 -39 -13 -21 -13 -23 7 -23 14 0 21 -6
21 -19 0 -26 -23 -44 -38 -29 -17 17 -16 -23 2 -66 25 -60 99 -97 162 -82 l27
7 -22 15 c-25 18 -27 46 -5 65 9 7 20 23 25 36 5 13 17 23 28 23 22 0 36 -29
21 -44 -13 -13 -13 -56 0 -56 14 0 32 77 25 109 -21 99 -118 148 -204 103z"/>
</g>
</svg>
